<?xml version="1.0" encoding="utf-8"?>
<svg xmlns="http://www.w3.org/2000/svg" x="0px" y="0px"
     viewBox="0 0 60 60" style="enable-background:new 0 0 60 60;" xml:space="preserve">
    <g id="close-drawer">
        <path d="M46.7,50.7H13.4c-1.9,0-3.4-1.5-3.4-3.4V14c0-1.9,1.5-3.4,3.4-3.4h33.3c1.9,0,3.4,1.5,3.4,3.4v33.3
        C50.1,49.1,48.6,50.7,46.7,50.7z M13.4,13.6c-0.2,0-0.4,0.2-0.4,0.4v33.3c0,0.2,0.2,0.4,0.4,0.4h33.3c0.2,0,0.4-0.2,0.4-0.4V14
        c0-0.2-0.2-0.4-0.4-0.4H13.4z"/>
    <rect x="34.8" y="12.1" width="3" height="37.1"/>
    <path d="M22.1,39.4c-0.4,0-0.7-0.1-1-0.4c-0.6-0.6-0.6-1.5-0.1-2.1l5.9-6.3L21,24.4c-0.6-0.6-0.5-1.6,0.1-2.1
        c0.6-0.6,1.6-0.5,2.1,0.1l6.8,7.3c0.5,0.6,0.5,1.5,0,2.1l-6.8,7.3C22.9,39.2,22.5,39.4,22.1,39.4z"/>
    </g>
</svg> 