<?xml version="1.0" encoding="utf-8"?>
<svg xmlns="http://www.w3.org/2000/svg" x="0px" y="0px"
     viewBox="0 0 60 60" style="enable-background:new 0 0 60 60;" xml:space="preserve">
    <g id="discussions">
        <path d="M12.6,42.4c-0.4,0-0.8-0.1-1-0.4c-0.4-0.4-0.6-1-0.4-1.5c0.8-2.9,2-8.1,1.8-9.7c-1-6.5,0.4-12.9,3.4-15.8
        c5.9-5.9,15.5-5.9,21.3,0c2.9,2.8,4.4,6.6,4.4,10.7c0,4-1.6,7.8-4.4,10.7c-3.1,3.1-9.9,3.7-15.1,3c-2.4,0.8-9.2,3-9.5,3.1
        C12.9,42.4,12.8,42.4,12.6,42.4z M27,13.5c-3.1,0-6.2,1.2-8.5,3.5c-2.3,2.3-3.3,7.8-2.5,13.3c0.3,1.9-0.5,5.7-1.2,8.3
        c2.5-0.8,5.9-1.9,7.2-2.3c0.2-0.1,0.5-0.1,0.7-0.1c5.2,0.8,10.9-0.1,12.9-2.1c2.3-2.3,3.5-5.3,3.5-8.5c0-3.2-1.3-6.3-3.5-8.5
        C33.2,14.7,30.1,13.5,27,13.5z"/>
    <path d="M47.5,50.8c-0.1,0-0.3,0-0.4-0.1c-2.9-0.8-8.1-2-9.7-1.8c-6.5,1-12.9-0.4-15.8-3.4c-1.7-1.7-3-3.9-3.7-6.4
        c-0.2-0.8,0.2-1.6,1-1.9c1.3-0.4,2.5-0.8,3.2-1c0.2-0.1,0.5-0.1,0.7-0.1c5.2,0.8,10.9-0.1,12.9-2.1c2.5-2.5,3.8-6.1,3.4-9.8
        c-0.1-0.6,0.2-1.2,0.8-1.5c0.5-0.3,1.2-0.2,1.6,0.1l0.3,0.2c0.4,0.3,0.8,0.6,1.2,1c3.1,3.1,3.7,9.9,3,15.1c0.8,2.4,3,9.2,3.1,9.5
        c0.2,0.5,0,1.1-0.4,1.5C48.3,50.6,47.9,50.8,47.5,50.8z M37.8,45.9c2,0,5.2,0.7,7.4,1.2c-0.8-2.5-1.9-5.9-2.3-7.2
        c-0.1-0.2-0.1-0.5-0.1-0.7c0.7-4.2,0.2-8.6-1-11.2c-0.5,3.1-1.9,6-4.2,8.2c-3.1,3.1-9.9,3.7-15.1,3c-0.4,0.1-0.9,0.3-1.4,0.5
        c0.6,1.4,1.4,2.7,2.5,3.7c2.3,2.3,7.8,3.3,13.3,2.5C37.2,45.9,37.5,45.9,37.8,45.9z"/>
    </g>
</svg> 