<?xml version="1.0" encoding="utf-8"?>
<svg xmlns="http://www.w3.org/2000/svg" x="0px" y="0px"
     viewBox="0 0 60 60" style="enable-background:new 0 0 60 60;" xml:space="preserve">
    <g id="execution">
        <path fill-rule="evenodd" clip-rule="evenodd" d="M27.4,15.4l3.2-3.2c2.6-2.6,7.1-4.4,11.6-5c2.2-0.3,4.3-0.3,6-0.1c1.8,0.3,2.9,0.8,3.4,1.3
	c0.5,0.5,1,1.6,1.3,3.4c0.3,1.7,0.2,3.8-0.1,6c-0.6,4.5-2.4,9-5,11.6L30,47.2l-4.6-4.6c-0.8-0.8-2-0.8-2.8,0c-0.8,0.8-0.8,2,0,2.8
	l6,6c0.8,0.8,2,0.8,2.8,0l2.2-2.2l4.7,7.8c0.3,0.5,0.9,0.9,1.5,1c0.6,0.1,1.2-0.1,1.7-0.6l8-8c0.4-0.4,0.7-1.1,0.6-1.7l-1.9-13
	l2.5-2.5c3.4-3.4,5.4-8.9,6.1-13.9c0.4-2.5,0.4-5,0.1-7.2c-0.3-2.1-1-4.2-2.4-5.6c-1.4-1.4-3.5-2.1-5.6-2.4
	c-2.2-0.3-4.7-0.3-7.2,0.1C36.7,4,31.2,6,27.8,9.4l-2.5,2.5l-13-1.9c-0.6-0.1-1.3,0.1-1.7,0.6l-8,8c-0.4,0.4-0.6,1-0.6,1.7
	c0.1,0.6,0.4,1.2,1,1.5l7.8,4.7l-2.2,2.2C8.2,29,8,29.5,8,30c0,0.5,0.2,1,0.6,1.4l6,6c0.8,0.8,2,0.8,2.8,0c0.8-0.8,0.8-2,0-2.8
	L12.8,30l2.6-2.6L27.4,15.4z M40.4,52.8l-3.9-6.5l8.1-8.1l1.3,9.1L40.4,52.8z M13.7,23.5l8.1-8.1l-9.1-1.3l-5.5,5.5L13.7,23.5z
	 M9.4,41.4c0.8-0.8,0.8-2,0-2.8c-0.8-0.8-2-0.8-2.8,0l-4,4c-0.8,0.8-0.8,2,0,2.8c0.8,0.8,2,0.8,2.8,0L9.4,41.4z M15.4,47.4
	c0.8-0.8,0.8-2,0-2.8c-0.8-0.8-2-0.8-2.8,0l-8,8c-0.8,0.8-0.8,2,0,2.8c0.8,0.8,2,0.8,2.8,0L15.4,47.4z M21.4,53.4
	c0.8-0.8,0.8-2,0-2.8c-0.8-0.8-2-0.8-2.8,0l-4,4c-0.8,0.8-0.8,2,0,2.8c0.8,0.8,2,0.8,2.8,0L21.4,53.4z M38,27c2.8,0,5-2.2,5-5
	s-2.2-5-5-5c-2.8,0-5,2.2-5,5S35.2,27,38,27z"/>
    </g>
</svg> 