<?xml version="1.0" encoding="utf-8"?>
<svg xmlns="http://www.w3.org/2000/svg" x="0px" y="0px"
     viewBox="0 0 60 60" style="enable-background:new 0 0 60 60;" xml:space="preserve">
    <g id="fullscreen-drawer-exit">
        <path d="M18.1,32.2c-4.5,0-8.1,3.6-8.1,8.1s3.6,8.1,8.1,8.1s8.1-3.6,8.1-8.1S22.6,32.2,18.1,32.2z M18.1,45.4
            c-2.8,0-5.1-2.3-5.1-5.1s2.3-5.1,5.1-5.1s5.1,2.3,5.1,5.1S21,45.4,18.1,45.4z"/>
    <path d="M43.9,9.6H16.2c-3.4,0-6.2,2.8-6.2,6.2v13.9c0,0.8,0.7,1.5,1.5,1.5s1.5-0.7,1.5-1.5V15.8c0-1.8,1.4-3.2,3.2-3.2h27.7
            c1.8,0,3.2,1.4,3.2,3.2v27.7c0,1.8-1.4,3.2-3.2,3.2H27.9c-0.8,0-1.5,0.7-1.5,1.5s0.7,1.5,1.5,1.5h16.1c3.4,0,6.2-2.8,6.2-6.2V15.8
            C50.1,12.4,47.4,9.6,43.9,9.6z"/>
    <path d="M40.4,33.1c0.8,0,1.5-0.7,1.5-1.5c0-0.8-0.7-1.5-1.5-1.5h-9.7l9.1-9.1c0.6-0.6,0.6-1.5,0-2.1s-1.5-0.6-2.1,0l-8.8,8.8v-9.1
            c0-0.8-0.7-1.5-1.5-1.5s-1.5,0.7-1.5,1.5v13c0,0.8,0.7,1.5,1.5,1.5H40.4z"/>
    </g>
</svg> 