<?xml version="1.0" encoding="utf-8"?>
<svg xmlns="http://www.w3.org/2000/svg" x="0px" y="0px"
     viewBox="0 0 60 60" style="enable-background:new 0 0 60 60;" xml:space="preserve">
    <g id="fullscreen-drawer">
        <path d="M18.1,48.4c-4.5,0-8.1-3.6-8.1-8.1s3.6-8.1,8.1-8.1s8.1,3.6,8.1,8.1S22.6,48.4,18.1,48.4z M18.1,35.2
        c-2.8,0-5.1,2.3-5.1,5.1s2.3,5.1,5.1,5.1s5.1-2.3,5.1-5.1S21,35.2,18.1,35.2z"/>
    <path d="M43.9,49.7H27.9c-0.8,0-1.5-0.7-1.5-1.5s0.7-1.5,1.5-1.5h16.1c1.8,0,3.2-1.4,3.2-3.2V15.8c0-1.8-1.4-3.2-3.2-3.2H16.2
        c-1.8,0-3.2,1.4-3.2,3.2v13.9c0,0.8-0.7,1.5-1.5,1.5S10,30.4,10,29.6V15.8c0-3.4,2.8-6.2,6.2-6.2h27.7c3.4,0,6.2,2.8,6.2,6.2v27.7
        C50.1,46.9,47.4,49.7,43.9,49.7z"/>
    <path d="M40.4,33.4c-0.8,0-1.5-0.7-1.5-1.5V20.5H27.4c-0.8,0-1.5-0.7-1.5-1.5s0.7-1.5,1.5-1.5h13c0.8,0,1.5,0.7,1.5,1.5v13
        C41.9,32.8,41.2,33.4,40.4,33.4z"/>
    <path d="M29,31.1c-0.4,0-0.8-0.1-1.1-0.4c-0.6-0.6-0.6-1.5,0-2.1l11-11c0.6-0.6,1.5-0.6,2.1,0s0.6,1.5,0,2.1l-11,11
        C29.8,31,29.4,31.1,29,31.1z"/>
    </g>
</svg> 