<?xml version="1.0" encoding="utf-8"?>
<svg xmlns="http://www.w3.org/2000/svg" x="0px" y="0px"
     viewBox="0 0 60 60" style="enable-background:new 0 0 60 60;" xml:space="preserve">
    <g id="logout">
        <path d="M30,3.1c1.4,0,2.5,1.1,2.5,2.5v25.3c0,1.4-1.1,2.5-2.5,2.5c-1.4,0-2.5-1.1-2.5-2.5V5.6
	C27.4,4.2,28.6,3.1,30,3.1z M14.5,11c1,1,1,2.6,0,3.6c-8.6,8.6-8.6,22.4,0,31c8.6,8.6,22.4,8.6,31,0c8.6-8.6,8.6-22.4,0-31
	c-1-1-1-2.6,0-3.6c1-1,2.6-1,3.6,0c10.5,10.5,10.5,27.6,0,38.1c-10.5,10.5-27.6,10.5-38.1,0C0.4,38.6,0.4,21.5,10.9,11
	C11.9,10,13.5,10,14.5,11z"/>
    </g>
</svg> 