<?xml version="1.0" encoding="utf-8"?>
<svg xmlns="http://www.w3.org/2000/svg" x="0px" y="0px"
     viewBox="0 0 60 60" style="enable-background:new 0 0 60 60;" xml:space="preserve">
    <g id="okr">
    <path d="M30.7,57.5c-14.8,0-26.8-12-26.8-26.8s12-26.8,26.8-26.8s26.8,12,26.8,26.8S45.5,57.5,30.7,57.5z M30.7,7.3
	C17.9,7.3,7.4,17.8,7.4,30.6C7.4,43.5,17.9,54,30.7,54c12.9,0,23.3-10.5,23.3-23.3C54.1,17.8,43.6,7.3,30.7,7.3z"/>
    <path d="M30.7,49.1c-10.2,0-18.5-8.3-18.5-18.5c0-10.2,8.3-18.5,18.5-18.5c10.2,0,18.5,8.3,18.5,18.5C49.2,40.8,40.9,49.1,30.7,49.1
	z M30.7,15.6c-8.3,0-15,6.7-15,15c0,8.3,6.7,15,15,15c8.3,0,15-6.7,15-15C45.7,22.4,39,15.6,30.7,15.6z"/>
    <path d="M30.7,40.2c-5.3,0-9.5-4.3-9.5-9.5s4.3-9.5,9.5-9.5s9.5,4.3,9.5,9.5S36,40.2,30.7,40.2z M30.7,24.6c-3.3,0-6,2.7-6,6
	c0,3.3,2.7,6,6,6c3.3,0,6-2.7,6-6C36.8,27.3,34.1,24.6,30.7,24.6z"/>
    </g>
</svg> 