<?xml version="1.0" encoding="utf-8"?>
<svg xmlns="http://www.w3.org/2000/svg" x="0px" y="0px"
     viewBox="0 0 60 60" style="enable-background:new 0 0 60 60;" xml:space="preserve">
    <g id="share">
        <path d="M17.7,39c-4.6,0-8.4-3.8-8.4-8.4s3.8-8.4,8.4-8.4s8.4,3.8,8.4,8.4S22.3,39,17.7,39z M17.7,25.2c-3,0-5.4,2.4-5.4,5.4
        s2.4,5.4,5.4,5.4s5.4-2.4,5.4-5.4S20.7,25.2,17.7,25.2z"/>
    <path d="M41.5,50.7c-4.6,0-8.4-3.8-8.4-8.4s3.8-8.4,8.4-8.4s8.4,3.8,8.4,8.4S46.2,50.7,41.5,50.7z M41.5,36.9c-3,0-5.4,2.4-5.4,5.4
        s2.4,5.4,5.4,5.4s5.4-2.4,5.4-5.4S44.5,36.9,41.5,36.9z"/>
    <path d="M41.5,27.3c-4.6,0-8.4-3.8-8.4-8.4s3.8-8.4,8.4-8.4s8.4,3.8,8.4,8.4S46.2,27.3,41.5,27.3z M41.5,13.6c-3,0-5.4,2.4-5.4,5.4
        s2.4,5.4,5.4,5.4s5.4-2.4,5.4-5.4S44.5,13.6,41.5,13.6z"/>
    <rect x="28.2" y="30.2" transform="matrix(0.4393 -0.8984 0.8984 0.4393 -16.1222 47.1763)" width="3" height="12.6"/>
    <rect x="24" y="23.1" transform="matrix(0.8984 -0.4391 0.4391 0.8984 -7.7643 15.6659)" width="12" height="3"/>
    </g>
</svg> 