<?xml version="1.0" encoding="utf-8"?>
<svg xmlns="http://www.w3.org/2000/svg" x="0px" y="0px"
     viewBox="0 0 60 60" style="enable-background:new 0 0 60 60;" xml:space="preserve">
    <g id="star">
        <path d="M42.6,47.8c-0.2,0-0.5-0.1-0.7-0.2l-11.6-6.1l-11.9,5.9c-0.5,0.3-1.1,0.2-1.6-0.2c-0.5-0.3-0.7-0.9-0.6-1.5l2.5-12.3
            l-7.4-8.7c-0.4-0.4-0.5-1.1-0.2-1.6c0.2-0.5,0.8-0.9,1.3-0.9l11.6-0.3l4.8-10.9c0.2-0.5,0.8-0.9,1.3-0.9c0.6,0,1.1,0.3,1.4,0.8
            l5.5,10.8l11.2,0.5c0.6,0,1.1,0.4,1.3,0.9c0.2,0.5,0.1,1.2-0.3,1.6l-7.8,8.7L44.1,46c0.1,0.6-0.1,1.1-0.6,1.5
            C43.2,47.7,42.9,47.8,42.6,47.8z M30.3,38.4c0.2,0,0.5,0.1,0.7,0.2l9.5,5l-2-10.1c-0.1-0.5,0-0.9,0.4-1.3l6.2-6.9l-8.9-0.4
            c-0.5,0-1-0.3-1.3-0.8l-4.5-8.8l-3.9,8.9c-0.2,0.5-0.8,0.9-1.3,0.9l-9.5,0.2l5.8,6.9c0.3,0.3,0.4,0.8,0.3,1.3l-2,10l9.8-4.9
            C29.8,38.4,30.1,38.4,30.3,38.4z"/>
    </g>
</svg> 