<?xml version="1.0" encoding="utf-8"?>
<svg xmlns="http://www.w3.org/2000/svg" x="0px" y="0px"
     viewBox="0 0 60 60" style="enable-background:new 0 0 60 60;" xml:space="preserve">
    <g id="time">
    <path d="M30.7,50C20,50,11.3,41.3,11.3,30.6S20,11.2,30.7,11.2s19.4,8.7,19.4,19.4S41.4,50,30.7,50z M30.7,14.2
        c-9,0-16.4,7.4-16.4,16.4S21.7,47,30.7,47s16.4-7.4,16.4-16.4S39.8,14.2,30.7,14.2z"/>
    <path d="M31.2,33.3c-1.8,0-1.9-0.1-2.3-0.6c-0.4-0.5-0.4-0.5-0.3-7.5c0-2.6,0.1-5.8,0-6.3c-0.1-0.5,0.1-1,0.6-1.4
        c0.7-0.5,1.6-0.4,2.1,0.2c0.4,0.5,0.4,0.5,0.3,7.5c0,1.7,0,3.8,0,5.1c0.7,0,1.6,0,2.4,0c4.6-0.1,4.6-0.1,5.1,0.6
        c0.5,0.7,0.4,1.6-0.2,2.1c-0.4,0.3-0.8,0.4-1.2,0.3c-0.5,0-2.3,0-3.6,0C32.8,33.3,31.9,33.3,31.2,33.3z M36.8,32.7
        c0.1,0.1,0.2,0.2,0.3,0.3C36.9,32.9,36.8,32.8,36.8,32.7z M36.8,32.7C36.8,32.7,36.8,32.7,36.8,32.7C36.8,32.7,36.8,32.7,36.8,32.7z
        "/>
    </g>
</svg> 