<?xml version="1.0" encoding="utf-8"?>
<svg xmlns="http://www.w3.org/2000/svg" x="0px" y="0px"
     viewBox="0 0 60 60" style="enable-background:new 0 0 60 60;" xml:space="preserve">
    <g id="touchpoint">
   	<path d="M52.7,3.4H7.4C4.9,3.4,2.8,5.4,2.8,8v45.3c0,2.6,2.1,4.6,4.6,4.6h45.3c2.6,0,4.6-2.1,4.6-4.6V8C57.3,5.4,55.3,3.4,52.7,3.4
		z M52.7,53.8H7.4c-0.3,0-0.6-0.2-0.6-0.6V17.7h46.4v35.5C53.3,53.6,53,53.8,52.7,53.8z"/>
    <path d="M44.4,23c-1.2-1.2-2.7-1.8-4.4-1.8c-1.3,0-2.6,0.4-3.6,1.2l-0.3,0.2l2.4,2.4l0.2-0.1c0.4-0.2,0.8-0.3,1.3-0.3
		c0.8,0,1.5,0.3,2,0.8l3,3c0.5,0.5,0.8,1.2,0.8,2c0,0.8-0.3,1.5-0.8,2L32.6,44.8c-0.5,0.5-1.2,0.8-2,0.8c-0.8,0-1.5-0.3-2-0.8l-3-3
		c-1.1-1.1-1.1-2.9,0-4l5.3-5.3l-2.4-2.4l-5.3,5.3c-1.2,1.2-1.8,2.7-1.8,4.4c0,1.7,0.6,3.2,1.8,4.4l3,3c1.2,1.2,2.7,1.8,4.4,1.8
		s3.2-0.6,4.4-1.8l12.4-12.4c1.2-1.2,1.8-2.7,1.8-4.4c0-1.7-0.6-3.2-1.8-4.4L44.4,23z"/>
    <path d="M20.3,46.2c-0.3,0.1-0.6,0.1-0.9,0.1c-0.8,0-1.5-0.3-2-0.8l-3-3c-0.5-0.5-0.8-1.2-0.8-2c0-0.8,0.3-1.5,0.8-2l12.4-12.4
		c0.5-0.5,1.2-0.8,2-0.8s1.5,0.3,2,0.8l3,3c1.1,1.1,1.1,2.9,0,4l-5.6,5.6l2.4,2.4l5.6-5.6c1.2-1.2,1.8-2.7,1.8-4.4
		c0-1.7-0.6-3.2-1.8-4.4l-3-3C32,22.6,30.5,22,28.8,22c-1.7,0-3.2,0.6-4.4,1.8L12.1,36.1c-1.2,1.2-1.8,2.7-1.8,4.4
		c0,1.7,0.6,3.2,1.8,4.4l3,3c1.2,1.2,2.7,1.8,4.4,1.8c1.1,0,2.2-0.3,3.2-0.9l0.3-0.2l-2.5-2.5L20.3,46.2z"/>
    </g>
</svg> 