<?xml version="1.0" encoding="utf-8"?>
<svg xmlns="http://www.w3.org/2000/svg" x="0px" y="0px"
     viewBox="0 0 60 60" style="enable-background:new 0 0 60 60;" xml:space="preserve">
    <g id="wizard">
        <path d="M44.3,48.7c-2.8,0-5.1-2.3-5.1-5.1s2.3-5.1,5.1-5.1s5.1,2.3,5.1,5.1S47.1,48.7,44.3,48.7z M44.3,41.4c-1.2,0-2.1,1-2.1,2.1
        s1,2.1,2.1,2.1s2.1-1,2.1-2.1S45.4,41.4,44.3,41.4z"/>
    <path d="M44.3,22.8c-2.8,0-5.1-2.3-5.1-5.1s2.3-5.1,5.1-5.1s5.1,2.3,5.1,5.1S47.1,22.8,44.3,22.8z M44.3,15.6c-1.2,0-2.1,1-2.1,2.1
        s1,2.1,2.1,2.1s2.1-1,2.1-2.1S45.4,15.6,44.3,15.6z"/>
    <path d="M28.1,48.7c-0.7,0-1.4-0.3-1.9-0.8c-0.1-0.1-0.2-0.2-0.3-0.3c-1.1-2-4.4-7.6-5.9-9.1c-1.4-1.3-6.4-4.1-8.3-5.1
        c-0.1-0.1-0.3-0.2-0.4-0.3c-1.1-1.1-1.1-2.8,0-3.9c0.1-0.1,0.2-0.2,0.3-0.3c1.8-1,6.9-3.9,8.3-5.3c1.5-1.5,4.8-6.9,5.9-8.9
        c0.1-0.1,0.1-0.2,0.2-0.3c1.1-1.1,2.8-1.1,3.9,0c0.1,0.1,0.2,0.3,0.3,0.4c1.3,2.8,3.8,7.6,5.1,8.8c1.3,1.3,6.2,3.9,9,5.2
        c0.2,0.1,0.3,0.2,0.4,0.3c1.1,1.1,1.1,2.8,0,3.9c-0.1,0.1-0.3,0.2-0.5,0.3c-2.8,1.2-7.7,3.7-9,5c-1.2,1.2-3.7,6.2-5.1,9
        c-0.1,0.2-0.2,0.3-0.3,0.4C29.5,48.4,28.8,48.7,28.1,48.7z M13.9,31.1c2,1,6.6,3.6,8.1,5.1c1.8,1.7,4.8,6.9,6,9c1-2.2,3.6-7.3,5.2-9
        c1.7-1.7,6.6-4.1,8.9-5.2c-2.2-1.1-7.2-3.6-8.9-5.3c-1.6-1.7-4.2-6.6-5.2-8.8c-1.2,2-4.2,7.1-5.9,8.8C20.5,27.4,15.9,30.1,13.9,31.1
        z"/>
    </g>
</svg> 